<?xml version="1.0" encoding="utf-8"?>
<!-- Generator: Adobe Illustrator 16.0.0, SVG Export Plug-In . SVG Version: 6.00 Build 0)  -->
<!DOCTYPE svg PUBLIC "-//W3C//DTD SVG 1.0//EN" "http://www.w3.org/TR/2001/REC-SVG-20010904/DTD/svg10.dtd">
<svg version="1.0" id="Layer_1" xmlns="http://www.w3.org/2000/svg" xmlns:xlink="http://www.w3.org/1999/xlink" x="0px" y="0px"
	 width="1164.202px" height="237.144px" viewBox="0 0 1164.202 237.144" enable-background="new 0 0 1164.202 237.144"
	 xml:space="preserve">
<g>
	<path fill-rule="evenodd" clip-rule="evenodd" fill="#FFFFFF" d="M104.406,51.925c-37.539,0-67.97,30.431-67.97,67.97
		s30.431,67.97,67.97,67.97s67.97-30.432,67.97-67.97S141.945,51.925,104.406,51.925z M144.48,151.251
		c0.259-9.761,0.729-19.13-0.927-28.406c-3.832-21.474-13.764-38.06-36.065-44.479c-10.272-2.958-20.721-3.232-31.199-0.919
		c-0.857,0.189-1.792,0.534-2.48-0.441c17.831-11.983,48.61-12.741,67.755,8.293C158.299,103.684,159.891,133.885,144.48,151.251z"
		/>
	<path fill-rule="evenodd" clip-rule="evenodd" fill="#FFFFFF" d="M179.371,20.414c-7.093-1.404-14.204-1.345-21.353-0.24
		c-19.103,2.953-35.777,11.267-51.546,22.661c2.874,0.992,4.756-0.414,6.736-1.129c13.696-4.945,27.57-8.735,42.371-7.685
		c16.091,1.142,27.525,10.56,31.135,26.224c3.887,16.867,0.743,33.271-3.689,49.913c0.604,0.028,0.993,0.163,1.247,0.033
		c0.567-0.288,1.194-0.608,1.577-1.09c11.786-14.825,20.87-30.878,22.247-50.284C209.502,39.014,198.359,24.174,179.371,20.414z"/>
	<path fill-rule="evenodd" clip-rule="evenodd" fill="#FFFFFF" d="M72.104,201.635c-7.708,1.619-15.497,2.062-23.335,1.598
		c-20.325-1.205-32.472-12.379-35.439-32.455c-1.387-9.387,0.056-18.568,1.877-27.727c1.777-8.939,4.918-17.496,7.831-26.115
		c-0.398-0.229-0.796-0.457-1.194-0.686c-2.52,4.426-5.26,8.744-7.523,13.296c-9.831,19.781-16.68,40.254-13.557,62.832
		c3.159,22.838,19.49,34.461,41.936,29.572c13.638-2.971,25.165-10.188,35.664-19.15c0.259-0.221,0.135-0.893,0.189-1.35
		C76.296,200.629,74.188,201.198,72.104,201.635z"/>
</g>
<g>
	<path fill="#FFFFFF" d="M338.139,164.824c-12.8,15.521-31.521,25.44-53.441,25.44c-37.921,0-68.481-29.44-68.481-66.401
		c0-37.121,30.561-66.401,68.481-66.401c21.921,0,40.801,10.08,52.962,24.8l-17.121,17.601c-7.84-11.521-20.96-18.88-35.841-18.88
		c-23.84,0-43.521,19.521-43.521,42.881c0,23.04,19.681,42.722,43.521,42.722c16.001,0,28.001-7.841,36.161-19.521L338.139,164.824z
		"/>
	<path fill="#FFFFFF" d="M431.418,187.864h-23.041v-55.361c0-13.44-8.64-19.84-18.08-19.84c-7.04,0-13.44,2.24-19.36,6.08v69.121
		h-23.2V55.221h23.2v45.441c6.88-5.28,16.48-7.84,24.801-7.84c19.04,0,35.681,12.16,35.681,38.081V187.864z"/>
	<path fill="#FFFFFF" d="M524.217,187.864h-23.2v-4.959c-8.16,5.6-17.28,7.359-26.881,7.359c-17.761,0-29.921-11.36-29.921-28
		c0-20.961,19.521-31.201,43.682-31.201h13.28c0-10.88-7.04-17.76-20.48-17.76c-6.4,0-13.28,1.92-20.161,8.16l-13.6-13.76
		c9.76-9.601,23.36-14.721,36.961-14.721c12.8,0,23.04,4.48,29.28,10.88c8.16,8.16,11.04,17.44,11.04,32.8V187.864z
		 M501.017,147.704h-10.561c-12.8,0-23.2,3.359-23.2,12.48c0,6.4,5.6,10.88,13.44,10.88c6.88,0,13.44-2.24,20.32-6.24V147.704z"/>
	<path fill="#FFFFFF" d="M596.054,124.502c-4.48-4.96-10.08-9.28-15.681-9.28c-5.76,0-15.36,5.12-15.36,20.481v52.16h-23.2V95.382
		h23.2v9.92c5.6-7.84,12.16-12.32,20.48-12.32c8.16,0,16,4.8,22.881,12L596.054,124.502z"/>
	<path fill="#FFFFFF" d="M655.411,187.384c-3.68,1.76-8.319,2.88-13.28,2.88c-13.76,0-25.76-6.88-25.76-25.44V55.061h23.521v105.763
		c0,7.681,3.52,10.08,7.84,10.08c2.72,0,5.28-0.8,7.68-2.399V187.384z"/>
	<path fill="#FFFFFF" d="M690.61,79.222h-24v-24h24V79.222z M690.29,187.864h-23.36V95.222h23.36V187.864z"/>
	<path fill="#FFFFFF" d="M806.132,151.063H732.21c3.681,10.881,12.641,19.521,26.241,19.521c8.32,0,17.28-3.041,22.88-8.001
		l14.561,14.561c-12.8,9.601-24.641,13.12-38.241,13.12c-27.681,0-49.44-21.76-49.44-48.641s21.92-48.642,49.281-48.642
		c26.24,0,49.44,20,49.44,48.481C806.932,144.503,806.612,147.704,806.132,151.063z M782.771,132.502
		c-3.68-11.68-13.761-19.52-25.44-19.52c-11.521,0-21.44,7.84-25.121,19.52H782.771z"/>
	<path fill="#FFFFFF" d="M926.608,188.024l-51.682-0.16V59.861h46.082c22.24,0,39.04,13.76,39.04,36.481
		c0,9.6-4.64,19.041-11.68,25.28c11.04,5.601,17.76,17.601,17.76,29.601C966.129,172.665,947.409,188.024,926.608,188.024z
		 M914.288,78.742h-14.561v35.201c5.28,0.16,8.961,0.16,14.561,0.16c11.04,0,21.28-4.96,21.28-17.28
		C935.568,84.662,925.328,78.742,914.288,78.742z M921.168,131.863c-7.2-0.159-14.24,0-21.44,0v35.36h18.561
		c10.881,0,22.081-5.119,22.081-17.439C940.369,138.903,931.729,131.863,921.168,131.863z"/>
	<path fill="#FFFFFF" d="M1055.728,187.864h-23.2v-4.959c-8.16,5.6-17.28,7.359-26.881,7.359c-17.761,0-29.921-11.36-29.921-28
		c0-20.961,19.521-31.201,43.682-31.201h13.28c0-10.88-7.04-17.76-20.48-17.76c-6.4,0-13.28,1.92-20.161,8.16l-13.6-13.76
		c9.76-9.601,23.36-14.721,36.961-14.721c12.8,0,23.04,4.48,29.28,10.88c8.16,8.16,11.04,17.44,11.04,32.8V187.864z
		 M1032.527,147.704h-10.561c-12.8,0-23.2,3.359-23.2,12.48c0,6.4,5.6,10.88,13.44,10.88c6.88,0,13.44-2.24,20.32-6.24V147.704z"/>
	<path fill="#FFFFFF" d="M1112.364,187.384c-3.68,1.76-8.319,2.88-13.28,2.88c-13.76,0-25.76-6.88-25.76-25.44V55.061h23.521
		v105.763c0,7.681,3.52,10.08,7.84,10.08c2.72,0,5.28-0.8,7.68-2.399V187.384z"/>
	<path fill="#FFFFFF" d="M1162.604,187.384c-3.681,1.76-8.32,2.88-13.281,2.88c-13.76,0-25.76-6.88-25.76-25.44V55.061h23.521
		v105.763c0,7.681,3.52,10.08,7.84,10.08c2.72,0,5.28-0.8,7.681-2.399V187.384z"/>
</g>
<g>
	<path fill="#FFFFFF" d="M422.199,63.864c-2.089,1.368-5.041,2.016-7.85,2.016c-9.792,0-13.104-4.752-13.104-15.193V32.469h-5.473
		v-3.96c6.696-3.384,11.665-9.433,12.817-17.57h3.024v12.169h10.513v9.361h-10.513v18.938c0,4.248,2.088,5.185,4.68,5.185
		c1.656,0,4.249-0.504,5.905-1.873V63.864z"/>
	<path fill="#FFFFFF" d="M465.976,64.8h-10.369V39.886c0-6.049-3.888-8.929-8.137-8.929c-3.168,0-6.048,1.008-8.712,2.736V64.8
		h-10.441V5.106h10.441v20.45c3.096-2.376,7.416-3.528,11.16-3.528c8.569,0,16.058,5.472,16.058,17.137V64.8z"/>
	<path fill="#FFFFFF" d="M516.521,48.238h-33.267c1.655,4.896,5.688,8.785,11.809,8.785c3.744,0,7.776-1.368,10.297-3.6l6.553,6.553
		c-5.761,4.32-11.089,5.904-17.21,5.904c-12.457,0-22.25-9.793-22.25-21.89c0-12.097,9.865-21.89,22.179-21.89
		c11.809,0,22.249,9.001,22.249,21.818C516.88,45.286,516.736,46.726,516.521,48.238z M506.008,39.886
		c-1.656-5.256-6.193-8.785-11.449-8.785c-5.185,0-9.649,3.528-11.305,8.785H506.008z"/>
</g>
</svg>
