<?xml version="1.0" encoding="utf-8"?>
<!-- Generator: Adobe Illustrator 16.0.0, SVG Export Plug-In . SVG Version: 6.00 Build 0)  -->
<!DOCTYPE svg PUBLIC "-//W3C//DTD SVG 1.0//EN" "http://www.w3.org/TR/2001/REC-SVG-20010904/DTD/svg10.dtd">
<svg version="1.0" id="Layer_1" xmlns="http://www.w3.org/2000/svg" xmlns:xlink="http://www.w3.org/1999/xlink" x="0px" y="0px"
	 width="1118.255px" height="261.808px" viewBox="0 0 1118.255 261.808" enable-background="new 0 0 1118.255 261.808"
	 xml:space="preserve">
<path fill-rule="evenodd" clip-rule="evenodd" fill="#47C9AF" d="M104.406,32.573c-37.539,0-67.97,30.431-67.97,67.97
	s30.431,67.97,67.97,67.97s67.97-30.432,67.97-67.97S141.945,32.573,104.406,32.573z M144.48,131.899
	c0.259-9.761,0.729-19.13-0.927-28.406c-3.832-21.474-13.764-38.06-36.065-44.479c-10.272-2.958-20.721-3.232-31.199-0.919
	c-0.857,0.189-1.792,0.534-2.48-0.441c17.831-11.983,48.61-12.741,67.755,8.293C158.299,84.332,159.891,114.533,144.48,131.899z"/>
<path fill-rule="evenodd" clip-rule="evenodd" fill="#47C9AF" d="M179.371,1.062c-7.093-1.404-14.204-1.345-21.353-0.24
	c-19.103,2.953-35.777,11.267-51.546,22.661c2.874,0.992,4.756-0.414,6.736-1.129c13.696-4.945,27.57-8.735,42.371-7.685
	c16.091,1.142,27.525,10.56,31.135,26.224c3.887,16.867,0.743,33.271-3.689,49.913c0.604,0.028,0.993,0.163,1.247,0.033
	c0.567-0.288,1.194-0.608,1.577-1.09c11.786-14.825,20.87-30.878,22.247-50.284C209.502,19.662,198.359,4.822,179.371,1.062z"/>
<path fill-rule="evenodd" clip-rule="evenodd" fill="#47C9AF" d="M72.104,182.283c-7.708,1.619-15.497,2.062-23.335,1.598
	c-20.325-1.205-32.472-12.379-35.439-32.455c-1.387-9.387,0.056-18.568,1.877-27.727c1.777-8.939,4.918-17.496,7.831-26.115
	c-0.398-0.229-0.796-0.457-1.194-0.686c-2.52,4.426-5.26,8.744-7.523,13.296c-9.831,19.781-16.68,40.254-13.557,62.832
	c3.159,22.838,19.49,34.461,41.936,29.572c13.638-2.971,25.165-10.188,35.664-19.15c0.259-0.221,0.135-0.893,0.189-1.35
	C76.296,181.277,74.188,181.846,72.104,182.283z"/>
<g>
	<path fill="#47C9AF" d="M340.094,148.472c-12.8,15.521-31.521,25.44-53.441,25.44c-37.921,0-68.481-29.44-68.481-66.401
		c0-37.121,30.561-66.401,68.481-66.401c21.921,0,40.801,10.08,52.962,24.8L322.493,83.51c-7.84-11.521-20.96-18.88-35.841-18.88
		c-23.84,0-43.521,19.521-43.521,42.881c0,23.04,19.681,42.722,43.521,42.722c16.001,0,28.001-7.841,36.161-19.521L340.094,148.472z
		"/>
	<path fill="#47C9AF" d="M433.373,171.512h-23.041V116.15c0-13.44-8.64-19.84-18.08-19.84c-7.04,0-13.44,2.24-19.36,6.08v69.121
		h-23.2V38.869h23.2V84.31c6.88-5.28,16.48-7.84,24.801-7.84c19.04,0,35.681,12.16,35.681,38.081V171.512z"/>
	<path fill="#47C9AF" d="M526.172,171.512h-23.2v-4.959c-8.16,5.6-17.28,7.359-26.881,7.359c-17.761,0-29.921-11.36-29.921-28
		c0-20.961,19.521-31.201,43.682-31.201h13.28c0-10.881-7.04-17.76-20.48-17.76c-6.4,0-13.28,1.92-20.161,8.161l-13.6-13.761
		c9.76-9.601,23.36-14.721,36.961-14.721c12.8,0,23.04,4.48,29.28,10.88c8.16,8.16,11.04,17.441,11.04,32.8V171.512z
		 M502.972,131.352h-10.561c-12.8,0-23.2,3.359-23.2,12.48c0,6.4,5.6,10.88,13.44,10.88c6.88,0,13.44-2.24,20.32-6.24V131.352z"/>
	<path fill="#47C9AF" d="M598.01,108.15c-4.48-4.96-10.081-9.28-15.681-9.28c-5.76,0-15.36,5.12-15.36,20.481v52.16h-23.2V79.03
		h23.2v9.92c5.601-7.84,12.16-12.32,20.48-12.32c8.16,0,16,4.8,22.881,12L598.01,108.15z"/>
	<path fill="#47C9AF" d="M657.366,171.032c-3.68,1.76-8.319,2.88-13.28,2.88c-13.76,0-25.76-6.88-25.76-25.44V38.709h23.521v105.763
		c0,7.681,3.52,10.08,7.84,10.08c2.72,0,5.28-0.8,7.68-2.399V171.032z"/>
	<path fill="#47C9AF" d="M692.565,62.87h-24v-24h24V62.87z M692.245,171.512h-23.36V78.87h23.36V171.512z"/>
	<path fill="#47C9AF" d="M808.087,134.711h-73.922c3.681,10.881,12.641,19.521,26.241,19.521c8.32,0,17.28-3.041,22.88-8.001
		l14.561,14.561c-12.8,9.601-24.641,13.12-38.241,13.12c-27.681,0-49.44-21.76-49.44-48.641s21.92-48.642,49.281-48.642
		c26.24,0,49.44,20,49.44,48.481C808.887,128.151,808.567,131.352,808.087,134.711z M784.727,116.15
		c-3.68-11.68-13.761-19.52-25.44-19.52c-11.521,0-21.44,7.84-25.121,19.52H784.727z"/>
	<path fill="#47C9AF" d="M878.166,171.672l-51.681-0.16V43.509h46.08c22.241,0,39.041,13.76,39.041,36.481
		c0,9.6-4.64,19.041-11.68,25.28c11.04,5.601,17.76,17.601,17.76,29.601C917.687,156.312,898.967,171.672,878.166,171.672z
		 M865.846,62.39h-14.561V97.59c5.28,0.16,8.961,0.16,14.561,0.16c11.04,0,21.28-4.96,21.28-17.28
		C887.126,68.31,876.886,62.39,865.846,62.39z M872.726,115.511c-7.2-0.159-14.24,0-21.44,0v35.36h18.561
		c10.881,0,22.081-5.119,22.081-17.439C891.927,122.551,883.286,115.511,872.726,115.511z"/>
	<path fill="#47C9AF" d="M1007.285,171.512h-23.2v-4.959c-8.16,5.6-17.28,7.359-26.881,7.359c-17.761,0-29.921-11.36-29.921-28
		c0-20.961,19.521-31.201,43.682-31.201h13.28c0-10.881-7.04-17.76-20.48-17.76c-6.4,0-13.28,1.92-20.161,8.161l-13.6-13.761
		c9.76-9.601,23.36-14.721,36.961-14.721c12.8,0,23.04,4.48,29.28,10.88c8.16,8.16,11.04,17.441,11.04,32.8V171.512z
		 M984.085,131.352h-10.561c-12.8,0-23.2,3.359-23.2,12.48c0,6.4,5.6,10.88,13.44,10.88c6.88,0,13.44-2.24,20.32-6.24V131.352z"/>
	<path fill="#47C9AF" d="M1063.923,171.032c-3.681,1.76-8.32,2.88-13.281,2.88c-13.76,0-25.76-6.88-25.76-25.44V38.709h23.521
		v105.763c0,7.681,3.52,10.08,7.84,10.08c2.72,0,5.28-0.8,7.681-2.399V171.032z"/>
	<path fill="#47C9AF" d="M1114.161,171.032c-3.68,1.76-8.319,2.88-13.28,2.88c-13.76,0-25.76-6.88-25.76-25.44V38.709h23.521
		v105.763c0,7.681,3.52,10.08,7.84,10.08c2.72,0,5.28-0.8,7.68-2.399V171.032z"/>
</g>
<g>
	<path fill="#47C9AF" d="M256.94,235.292h-7.441v-38.355h7.441V235.292z"/>
	<path fill="#47C9AF" d="M288.43,235.292h-6.913V218.73c0-4.032-2.641-5.952-5.473-5.952c-2.112,0-4.225,0.72-5.904,2.304v20.21
		h-6.961v-27.746h6.961v2.063c1.729-1.728,4.944-2.784,7.44-2.784c5.568,0,10.85,3.457,10.85,11.569V235.292z"/>
	<path fill="#47C9AF" d="M303.308,236.061c-4.225,0-7.825-1.488-10.514-4.945l4.177-4.224c1.68,2.112,3.889,3.36,6.385,3.36
		c2.16,0,3.792-0.816,3.792-2.4c0-1.681-2.16-2.641-5.856-3.744c-4.368-1.297-8.545-3.937-8.545-8.737
		c0-5.425,5.473-8.545,10.705-8.545c4.225,0,7.681,1.585,10.369,4.801l-4.129,4.177c-1.584-1.969-3.647-3.217-6.096-3.217
		c-1.681,0-3.984,0.864-3.984,2.593c0,1.487,2.016,2.448,5.664,3.552c4.753,1.393,8.736,4.272,8.736,8.785
		C314.012,233.084,308.348,236.061,303.308,236.061z"/>
	<path fill="#47C9AF" d="M333.787,234.668c-1.393,0.912-3.36,1.344-5.232,1.344c-6.529,0-8.737-3.168-8.737-10.129v-12.145h-3.648
		v-2.641c4.465-2.256,7.777-6.288,8.545-11.713h2.017v8.113h7.009v6.24h-7.009v12.625c0,2.832,1.392,3.456,3.12,3.456
		c1.104,0,2.832-0.336,3.937-1.248V234.668z"/>
	<path fill="#47C9AF" d="M360.428,235.292h-6.961v-1.488c-2.448,1.681-5.185,2.208-8.064,2.208c-5.328,0-8.977-3.408-8.977-8.4
		c0-6.288,5.856-9.36,13.104-9.36h3.984c0-3.265-2.112-5.329-6.145-5.329c-1.92,0-3.984,0.576-6.048,2.448l-4.081-4.128
		c2.929-2.881,7.009-4.417,11.089-4.417c3.841,0,6.913,1.345,8.785,3.265c2.448,2.448,3.312,5.232,3.312,9.841V235.292z
		 M353.467,223.243h-3.168c-3.841,0-6.961,1.008-6.961,3.744c0,1.92,1.681,3.265,4.032,3.265c2.064,0,4.032-0.673,6.097-1.873
		V223.243z"/>
	<path fill="#47C9AF" d="M390.956,235.292h-6.913V218.73c0-4.032-2.641-5.952-5.473-5.952c-2.112,0-4.224,0.72-5.904,2.304v20.21
		h-6.961v-27.746h6.961v2.063c1.729-1.728,4.944-2.784,7.44-2.784c5.568,0,10.85,3.457,10.85,11.569V235.292z"/>
	<path fill="#47C9AF" d="M411.69,234.668c-1.393,0.912-3.36,1.344-5.232,1.344c-6.529,0-8.737-3.168-8.737-10.129v-12.145h-3.648
		v-2.641c4.465-2.256,7.777-6.288,8.545-11.713h2.017v8.113h7.009v6.24h-7.009v12.625c0,2.832,1.392,3.456,3.12,3.456
		c1.104,0,2.832-0.336,3.937-1.248V234.668z"/>
	<path fill="#47C9AF" d="M452.537,235.292l-2.736-8.736c-1.152-3.841-3.217-6.529-7.825-6.529h-2.784v15.266h-7.345v-38.355
		l15.17-0.048c6.576,0,11.473,4.752,11.473,11.041c0,4.416-2.976,8.736-7.2,10.129c2.448,0.912,3.888,2.641,4.8,4.992
		c0.912,2.16,1.536,4.129,2.688,7.537c0.72,2.112,1.248,3.552,1.969,4.704H452.537z M444.568,202.361h-5.377v11.953h5.377
		c3.601,0,6.433-2.257,6.433-5.856C451.001,204.905,448.169,202.361,444.568,202.361z"/>
	<path fill="#47C9AF" d="M492.762,224.251h-22.178c1.104,3.265,3.792,5.856,7.872,5.856c2.496,0,5.185-0.912,6.865-2.4l4.368,4.369
		c-3.841,2.88-7.393,3.936-11.473,3.936c-8.306,0-14.834-6.528-14.834-14.593s6.577-14.594,14.785-14.594
		c7.873,0,14.834,6.001,14.834,14.546C493.002,222.283,492.905,223.243,492.762,224.251z M485.753,218.683
		c-1.104-3.504-4.128-5.856-7.633-5.856c-3.456,0-6.433,2.353-7.536,5.856H485.753z"/>
	<path fill="#47C9AF" d="M509.032,235.148c-1.104,0.527-2.497,0.863-3.984,0.863c-4.129,0-7.729-2.063-7.729-7.633v-32.931h7.057
		v31.731c0,2.304,1.057,3.023,2.353,3.023c0.816,0,1.584-0.239,2.305-0.72V235.148z"/>
	<path fill="#47C9AF" d="M519.592,202.697h-7.201v-7.201h7.201V202.697z M519.495,235.292h-7.008v-27.794h7.008V235.292z"/>
	<path fill="#47C9AF" d="M554.249,224.251h-22.178c1.104,3.265,3.792,5.856,7.872,5.856c2.496,0,5.185-0.912,6.865-2.4l4.368,4.369
		c-3.841,2.88-7.393,3.936-11.473,3.936c-8.305,0-14.834-6.528-14.834-14.593s6.577-14.594,14.785-14.594
		c7.873,0,14.834,6.001,14.834,14.546C554.489,222.283,554.393,223.243,554.249,224.251z M547.24,218.683
		c-1.104-3.504-4.128-5.856-7.633-5.856c-3.456,0-6.433,2.353-7.536,5.856H547.24z"/>
	<path fill="#47C9AF" d="M574.265,201.785c-1.345-0.528-2.257-0.624-3.457-0.624c-2.688,0-3.696,0.96-3.696,4.225v2.208h4.369v6.049
		h-4.369v21.649h-6.864v-21.649h-3.36v-6.049h3.36v-2.112c0-6.961,2.256-10.705,8.785-10.705c1.68,0,3.456,0.24,5.232,0.672V201.785
		z"/>
	<path fill="#47C9AF" d="M583.575,235.292c0,3.072-1.776,5.713-5.232,5.713c-0.624,0-1.248-0.145-1.776-0.288v-0.528
		c1.872-0.336,3.12-1.872,3.12-3.744c0-0.336-0.048-0.816-0.192-1.152h-3.072v-7.152h7.153V235.292z"/>
	<path fill="#47C9AF" d="M643.192,235.292h-8.161l-3.553-7.681h-18.625l-3.601,7.681h-8.16l18.146-38.403h5.809L643.192,235.292z
		 M628.551,221.419l-6.385-13.825l-6.48,13.825H628.551z"/>
	<path fill="#47C9AF" d="M671.319,235.292h-6.913V218.73c0-4.032-2.641-5.952-5.473-5.952c-2.112,0-4.224,0.72-5.904,2.304v20.21
		h-6.961v-27.746h6.961v2.063c1.729-1.728,4.944-2.784,7.44-2.784c5.568,0,10.85,3.457,10.85,11.569V235.292z"/>
	<path fill="#47C9AF" d="M701.798,207.498l-12.48,32.979c-1.872,4.992-4.801,6.961-9.025,6.961c-0.624,0-1.439-0.097-2.16-0.288
		l-2.304-6.433c1.248,0.527,2.353,0.815,3.312,0.815c2.16,0,4.08-0.815,5.04-3.504l0.96-2.784l-10.705-27.746h7.537l6.385,17.857
		l6-17.857H701.798z"/>
	<path fill="#47C9AF" d="M720.374,234.668c-1.393,0.912-3.36,1.344-5.232,1.344c-6.529,0-8.737-3.168-8.737-10.129v-12.145h-3.648
		v-2.641c4.465-2.256,7.777-6.288,8.545-11.713h2.017v8.113h7.009v6.24h-7.009v12.625c0,2.832,1.392,3.456,3.12,3.456
		c1.104,0,2.832-0.336,3.937-1.248V234.668z"/>
	<path fill="#47C9AF" d="M731.652,202.697h-7.201v-7.201h7.201V202.697z M731.556,235.292h-7.008v-27.794h7.008V235.292z"/>
	<path fill="#47C9AF" d="M778.936,235.292h-6.864V218.73c0-3.889-2.16-5.952-4.896-5.952c-2.112,0-3.984,0.624-5.761,2.16
		c0.288,1.104,0.432,2.4,0.432,3.792v16.562h-6.912V218.73c0-3.889-2.16-5.952-4.849-5.952c-2.112,0-3.553,0.72-5.28,2.304v20.21
		h-6.913v-27.746h6.913v2.063c1.728-1.68,4.176-2.784,6.624-2.784c2.688,0,5.569,1.248,7.633,3.553
		c2.881-2.544,5.713-3.553,9.217-3.553c5.761,0,10.657,3.36,10.657,11.569V235.292z"/>
	<path fill="#47C9AF" d="M812.63,224.251h-22.178c1.104,3.265,3.792,5.856,7.872,5.856c2.496,0,5.185-0.912,6.865-2.4l4.368,4.369
		c-3.841,2.88-7.393,3.936-11.473,3.936c-8.305,0-14.834-6.528-14.834-14.593s6.577-14.594,14.785-14.594
		c7.873,0,14.834,6.001,14.834,14.546C812.87,222.283,812.773,223.243,812.63,224.251z M805.621,218.683
		c-1.104-3.504-4.128-5.856-7.633-5.856c-3.456,0-6.433,2.353-7.536,5.856H805.621z"/>
	<path fill="#47C9AF" d="M872.007,235.292h-8.161l-3.553-7.681h-18.625l-3.601,7.681h-8.16l18.146-38.403h5.809L872.007,235.292z
		 M857.365,221.419l-6.385-13.825l-6.48,13.825H857.365z"/>
	<path fill="#47C9AF" d="M900.133,235.292h-6.913V218.73c0-4.032-2.641-5.952-5.473-5.952c-2.112,0-4.225,0.72-5.904,2.304v20.21
		h-6.961v-27.746h6.961v2.063c1.729-1.728,4.944-2.784,7.44-2.784c5.568,0,10.85,3.457,10.85,11.569V235.292z"/>
	<path fill="#47C9AF" d="M930.611,207.498l-12.48,32.979c-1.872,4.992-4.801,6.961-9.025,6.961c-0.624,0-1.439-0.097-2.16-0.288
		l-2.304-6.433c1.248,0.527,2.353,0.815,3.312,0.815c2.16,0,4.08-0.815,5.04-3.504l0.96-2.784l-10.705-27.746h7.537l6.385,17.857
		l6-17.857H930.611z"/>
	<path fill="#47C9AF" d="M973.285,207.498l-9.312,27.842h-6.001l-5.521-16.562l-5.521,16.562h-6l-9.361-27.842h7.297l5.232,17.377
		l5.232-17.377h6.145l5.28,17.377l5.232-17.377H973.285z"/>
	<path fill="#47C9AF" d="M1001.507,235.292h-6.912v-16.609c0-4.032-2.593-5.952-5.425-5.952c-2.112,0-4.032,0.672-5.809,1.824
		v20.737H976.4v-39.796h6.961v13.634c2.064-1.584,4.944-2.353,7.44-2.353c5.713,0,10.705,3.648,10.705,11.425V235.292z"/>
	<path fill="#47C9AF" d="M1035.204,224.251h-22.178c1.104,3.265,3.792,5.856,7.872,5.856c2.496,0,5.185-0.912,6.865-2.4l4.368,4.369
		c-3.841,2.88-7.393,3.936-11.473,3.936c-8.305,0-14.834-6.528-14.834-14.593s6.577-14.594,14.785-14.594
		c7.873,0,14.834,6.001,14.834,14.546C1035.444,222.283,1035.348,223.243,1035.204,224.251z M1028.195,218.683
		c-1.104-3.504-4.128-5.856-7.633-5.856c-3.456,0-6.433,2.353-7.536,5.856H1028.195z"/>
	<path fill="#47C9AF" d="M1056.034,216.282c-1.344-1.488-3.023-2.784-4.704-2.784c-1.729,0-4.608,1.536-4.608,6.145v15.649h-6.961
		v-27.746h6.961v2.976c1.68-2.352,3.648-3.696,6.145-3.696c2.448,0,4.801,1.44,6.864,3.601L1056.034,216.282z"/>
	<path fill="#47C9AF" d="M1090.547,224.251h-22.178c1.104,3.265,3.792,5.856,7.872,5.856c2.496,0,5.185-0.912,6.865-2.4l4.368,4.369
		c-3.841,2.88-7.393,3.936-11.473,3.936c-8.306,0-14.834-6.528-14.834-14.593s6.577-14.594,14.785-14.594
		c7.873,0,14.834,6.001,14.834,14.546C1090.787,222.283,1090.69,223.243,1090.547,224.251z M1083.538,218.683
		c-1.104-3.504-4.128-5.856-7.633-5.856c-3.456,0-6.433,2.353-7.536,5.856H1083.538z"/>
</g>
</svg>
