<?xml version="1.0" encoding="utf-8"?>
<!-- Generator: Adobe Illustrator 16.0.0, SVG Export Plug-In . SVG Version: 6.00 Build 0)  -->
<!DOCTYPE svg PUBLIC "-//W3C//DTD SVG 1.0//EN" "http://www.w3.org/TR/2001/REC-SVG-20010904/DTD/svg10.dtd">
<svg version="1.0" id="Layer_1" xmlns="http://www.w3.org/2000/svg" xmlns:xlink="http://www.w3.org/1999/xlink" x="0px" y="0px"
	 width="1118.254px" height="220.792px" viewBox="0 0 1118.254 220.792" enable-background="new 0 0 1118.254 220.792"
	 xml:space="preserve">
<g>
	<path fill-rule="evenodd" clip-rule="evenodd" fill="#FFFFFF" d="M104.406,32.573c-37.539,0-67.97,30.431-67.97,67.97
		s30.431,67.97,67.97,67.97s67.97-30.432,67.97-67.97S141.945,32.573,104.406,32.573z M144.48,131.899
		c0.259-9.761,0.729-19.13-0.927-28.406c-3.832-21.474-13.764-38.06-36.065-44.479c-10.272-2.958-20.721-3.232-31.199-0.919
		c-0.857,0.189-1.792,0.534-2.48-0.441c17.831-11.983,48.61-12.741,67.755,8.293C158.299,84.332,159.891,114.533,144.48,131.899z"/>
	<path fill-rule="evenodd" clip-rule="evenodd" fill="#FFFFFF" d="M179.371,1.062c-7.093-1.404-14.204-1.345-21.353-0.24
		c-19.103,2.953-35.777,11.267-51.546,22.661c2.874,0.992,4.756-0.414,6.736-1.129c13.696-4.945,27.57-8.735,42.371-7.685
		c16.091,1.142,27.525,10.56,31.135,26.224c3.887,16.867,0.743,33.271-3.689,49.913c0.604,0.028,0.993,0.163,1.247,0.033
		c0.567-0.288,1.194-0.608,1.577-1.09c11.786-14.825,20.87-30.878,22.247-50.284C209.502,19.662,198.359,4.822,179.371,1.062z"/>
	<path fill-rule="evenodd" clip-rule="evenodd" fill="#FFFFFF" d="M72.104,182.283c-7.708,1.619-15.497,2.062-23.335,1.598
		c-20.325-1.205-32.472-12.379-35.439-32.455c-1.387-9.387,0.056-18.568,1.877-27.727c1.777-8.939,4.918-17.496,7.831-26.115
		c-0.398-0.229-0.796-0.457-1.194-0.686c-2.52,4.426-5.26,8.744-7.523,13.296c-9.831,19.781-16.68,40.254-13.557,62.832
		c3.159,22.838,19.49,34.461,41.936,29.572c13.638-2.971,25.165-10.188,35.664-19.15c0.259-0.221,0.135-0.893,0.189-1.35
		C76.296,181.277,74.188,181.846,72.104,182.283z"/>
</g>
<g>
	<path fill="#FFFFFF" d="M342.589,148.472c-12.8,15.521-31.521,25.44-53.441,25.44c-37.921,0-68.481-29.44-68.481-66.401
		c0-37.121,30.561-66.401,68.481-66.401c21.921,0,40.801,10.08,52.962,24.8L324.989,83.51c-7.84-11.521-20.96-18.88-35.841-18.88
		c-23.84,0-43.521,19.521-43.521,42.881c0,23.04,19.681,42.722,43.521,42.722c16.001,0,28.001-7.841,36.161-19.521L342.589,148.472z
		"/>
	<path fill="#FFFFFF" d="M435.869,171.512h-23.041V116.15c0-13.44-8.64-19.84-18.08-19.84c-7.04,0-13.44,2.24-19.36,6.08v69.121
		h-23.2V38.869h23.2V84.31c6.88-5.28,16.48-7.84,24.801-7.84c19.04,0,35.681,12.16,35.681,38.081V171.512z"/>
	<path fill="#FFFFFF" d="M528.667,171.512h-23.2v-4.959c-8.16,5.6-17.28,7.359-26.881,7.359c-17.761,0-29.921-11.36-29.921-28
		c0-20.961,19.521-31.201,43.682-31.201h13.28c0-10.88-7.04-17.76-20.48-17.76c-6.4,0-13.28,1.92-20.161,8.16l-13.6-13.76
		c9.76-9.601,23.36-14.721,36.961-14.721c12.8,0,23.04,4.48,29.28,10.88c8.16,8.16,11.04,17.44,11.04,32.8V171.512z
		 M505.467,131.352h-10.561c-12.8,0-23.2,3.359-23.2,12.48c0,6.4,5.6,10.88,13.44,10.88c6.88,0,13.44-2.24,20.32-6.24V131.352z"/>
	<path fill="#FFFFFF" d="M600.504,108.151c-4.48-4.96-10.08-9.28-15.68-9.28c-5.76,0-15.36,5.12-15.36,20.481v52.16h-23.2V79.03
		h23.2v9.92c5.6-7.84,12.16-12.32,20.48-12.32c8.16,0,16,4.8,22.88,12L600.504,108.151z"/>
	<path fill="#FFFFFF" d="M659.861,171.032c-3.68,1.76-8.318,2.88-13.279,2.88c-13.76,0-25.76-6.88-25.76-25.44V38.709h23.52v105.763
		c0,7.681,3.52,10.08,7.84,10.08c2.721,0,5.281-0.8,7.68-2.399V171.032z"/>
	<path fill="#FFFFFF" d="M695.061,62.87h-24v-24h24V62.87z M694.74,171.512h-23.359V78.87h23.359V171.512z"/>
	<path fill="#FFFFFF" d="M810.582,134.711H736.66c3.682,10.881,12.641,19.521,26.242,19.521c8.32,0,17.279-3.041,22.879-8.001
		l14.561,14.561c-12.799,9.601-24.641,13.12-38.24,13.12c-27.682,0-49.441-21.76-49.441-48.641s21.92-48.642,49.281-48.642
		c26.24,0,49.441,20,49.441,48.481C811.383,128.151,811.062,131.352,810.582,134.711z M787.223,116.15
		c-3.68-11.68-13.762-19.52-25.441-19.52c-11.52,0-21.439,7.84-25.121,19.52H787.223z"/>
	<path fill="#FFFFFF" d="M880.662,171.672l-51.682-0.16V43.509h46.08c22.242,0,39.041,13.76,39.041,36.481
		c0,9.6-4.639,19.041-11.68,25.28c11.041,5.6,17.76,17.601,17.76,29.601C920.182,156.312,901.463,171.672,880.662,171.672z
		 M868.342,62.39h-14.561V97.59c5.279,0.16,8.961,0.16,14.561,0.16c11.039,0,21.279-4.96,21.279-17.28
		C889.621,68.31,879.381,62.39,868.342,62.39z M875.221,115.511c-7.199-0.159-14.24,0-21.439,0v35.36h18.561
		c10.881,0,22.08-5.119,22.08-17.439C894.422,122.551,885.781,115.511,875.221,115.511z"/>
	<path fill="#FFFFFF" d="M1009.781,171.512H986.58v-4.959c-8.16,5.6-17.279,7.359-26.881,7.359c-17.76,0-29.92-11.36-29.92-28
		c0-20.961,19.52-31.201,43.682-31.201h13.279c0-10.88-7.039-17.76-20.48-17.76c-6.4,0-13.279,1.92-20.16,8.16l-13.6-13.76
		c9.76-9.601,23.359-14.721,36.961-14.721c12.799,0,23.039,4.48,29.279,10.88c8.16,8.16,11.041,17.44,11.041,32.8V171.512z
		 M986.58,131.352H976.02c-12.799,0-23.199,3.359-23.199,12.48c0,6.4,5.6,10.88,13.439,10.88c6.881,0,13.441-2.24,20.32-6.24
		V131.352z"/>
	<path fill="#FFFFFF" d="M1066.416,171.032c-3.68,1.76-8.318,2.88-13.279,2.88c-13.76,0-25.76-6.88-25.76-25.44V38.709h23.52
		v105.763c0,7.681,3.52,10.08,7.84,10.08c2.721,0,5.281-0.8,7.68-2.399V171.032z"/>
	<path fill="#FFFFFF" d="M1116.656,171.032c-3.68,1.76-8.318,2.88-13.279,2.88c-13.76,0-25.76-6.88-25.76-25.44V38.709h23.52
		v105.763c0,7.681,3.52,10.08,7.84,10.08c2.721,0,5.281-0.8,7.68-2.399V171.032z"/>
</g>
<g>
</g>
<g>
</g>
<g>
</g>
<g>
</g>
<g>
</g>
<g>
</g>
</svg>
